<mxfile host="app.diagrams.net" modified="2024-01-08T07:31:09.306Z" agent="Mozilla/5.0 (Windows NT 10.0; Win64; x64) AppleWebKit/537.36 (KHTML, like Gecko) Chrome/120.0.0.0 Safari/537.36" etag="-zt20zSjpceysuJyqUBi" version="22.1.16" type="github">
  <diagram name="第 1 页" id="e1NoEdf7aWCd0x2-uwLn">
    <mxGraphModel dx="1877" dy="1738" grid="1" gridSize="10" guides="1" tooltips="1" connect="1" arrows="1" fold="1" page="1" pageScale="1" pageWidth="827" pageHeight="1169" math="0" shadow="0">
      <root>
        <mxCell id="0" />
        <mxCell id="1" parent="0" />
        <mxCell id="jQPC9AbLbP4iLRhdmr1n-7" style="edgeStyle=orthogonalEdgeStyle;rounded=0;orthogonalLoop=1;jettySize=auto;html=1;entryX=0;entryY=0.5;entryDx=0;entryDy=0;" parent="1" source="jQPC9AbLbP4iLRhdmr1n-1" target="jQPC9AbLbP4iLRhdmr1n-8" edge="1">
          <mxGeometry relative="1" as="geometry">
            <mxPoint x="230" y="100" as="targetPoint" />
          </mxGeometry>
        </mxCell>
        <mxCell id="jQPC9AbLbP4iLRhdmr1n-11" value="遍历每个座位，当有人则按顺序分配设备到座位" style="edgeLabel;html=1;align=center;verticalAlign=middle;resizable=0;points=[];" parent="jQPC9AbLbP4iLRhdmr1n-7" vertex="1" connectable="0">
          <mxGeometry x="-0.0503" y="3" relative="1" as="geometry">
            <mxPoint as="offset" />
          </mxGeometry>
        </mxCell>
        <mxCell id="jQPC9AbLbP4iLRhdmr1n-1" value="人员排座" style="rounded=0;whiteSpace=wrap;html=1;" parent="1" vertex="1">
          <mxGeometry x="-130" y="70" width="120" height="60" as="geometry" />
        </mxCell>
        <mxCell id="jQPC9AbLbP4iLRhdmr1n-2" value="&lt;h1&gt;优化设备分配理解示意图&lt;/h1&gt;" style="text;html=1;align=center;verticalAlign=middle;resizable=0;points=[];autosize=1;strokeColor=none;fillColor=none;" parent="1" vertex="1">
          <mxGeometry x="10" y="-50" width="290" height="70" as="geometry" />
        </mxCell>
        <mxCell id="jQPC9AbLbP4iLRhdmr1n-9" style="edgeStyle=orthogonalEdgeStyle;rounded=0;orthogonalLoop=1;jettySize=auto;html=1;" parent="1" source="jQPC9AbLbP4iLRhdmr1n-4" edge="1">
          <mxGeometry relative="1" as="geometry">
            <mxPoint x="110" y="100" as="targetPoint" />
          </mxGeometry>
        </mxCell>
        <mxCell id="jQPC9AbLbP4iLRhdmr1n-4" value="中间数据" style="shape=cylinder3;whiteSpace=wrap;html=1;boundedLbl=1;backgroundOutline=1;size=15;" parent="1" vertex="1">
          <mxGeometry x="-100" y="310" width="60" height="80" as="geometry" />
        </mxCell>
        <mxCell id="jQPC9AbLbP4iLRhdmr1n-5" style="edgeStyle=orthogonalEdgeStyle;rounded=0;orthogonalLoop=1;jettySize=auto;html=1;entryX=0.5;entryY=0;entryDx=0;entryDy=0;entryPerimeter=0;" parent="1" source="jQPC9AbLbP4iLRhdmr1n-1" target="jQPC9AbLbP4iLRhdmr1n-4" edge="1">
          <mxGeometry relative="1" as="geometry" />
        </mxCell>
        <mxCell id="jQPC9AbLbP4iLRhdmr1n-6" value="每个会议座次图只有一条数据&lt;br&gt;，当排议题人员时根据座位编号进行对应" style="edgeLabel;html=1;align=center;verticalAlign=middle;resizable=0;points=[];" parent="jQPC9AbLbP4iLRhdmr1n-5" vertex="1" connectable="0">
          <mxGeometry x="0.18" y="3" relative="1" as="geometry">
            <mxPoint as="offset" />
          </mxGeometry>
        </mxCell>
        <mxCell id="jQPC9AbLbP4iLRhdmr1n-13" value="" style="edgeStyle=orthogonalEdgeStyle;rounded=0;orthogonalLoop=1;jettySize=auto;html=1;" parent="1" source="jQPC9AbLbP4iLRhdmr1n-8" target="jQPC9AbLbP4iLRhdmr1n-12" edge="1">
          <mxGeometry relative="1" as="geometry" />
        </mxCell>
        <mxCell id="jQPC9AbLbP4iLRhdmr1n-8" value="设备分配" style="rounded=0;whiteSpace=wrap;html=1;" parent="1" vertex="1">
          <mxGeometry x="279" y="70" width="120" height="60" as="geometry" />
        </mxCell>
        <mxCell id="jQPC9AbLbP4iLRhdmr1n-14" value="" style="edgeStyle=orthogonalEdgeStyle;rounded=0;orthogonalLoop=1;jettySize=auto;html=1;" parent="1" source="jQPC9AbLbP4iLRhdmr1n-12" target="jQPC9AbLbP4iLRhdmr1n-8" edge="1">
          <mxGeometry relative="1" as="geometry" />
        </mxCell>
        <mxCell id="jQPC9AbLbP4iLRhdmr1n-15" value="检查是否有问题" style="edgeLabel;html=1;align=center;verticalAlign=middle;resizable=0;points=[];" parent="jQPC9AbLbP4iLRhdmr1n-14" vertex="1" connectable="0">
          <mxGeometry x="0.175" y="2" relative="1" as="geometry">
            <mxPoint as="offset" />
          </mxGeometry>
        </mxCell>
        <mxCell id="jQPC9AbLbP4iLRhdmr1n-12" value="保存" style="rounded=0;whiteSpace=wrap;html=1;" parent="1" vertex="1">
          <mxGeometry x="279" y="210" width="120" height="60" as="geometry" />
        </mxCell>
        <mxCell id="TOe0ZiUlGQk0aBQ8viVR-3" style="edgeStyle=orthogonalEdgeStyle;rounded=0;orthogonalLoop=1;jettySize=auto;html=1;entryX=0;entryY=0.5;entryDx=0;entryDy=0;" edge="1" parent="1" source="TOe0ZiUlGQk0aBQ8viVR-1" target="TOe0ZiUlGQk0aBQ8viVR-7">
          <mxGeometry relative="1" as="geometry">
            <mxPoint x="80" y="630" as="targetPoint" />
          </mxGeometry>
        </mxCell>
        <mxCell id="TOe0ZiUlGQk0aBQ8viVR-5" value="保存" style="edgeLabel;html=1;align=center;verticalAlign=middle;resizable=0;points=[];" vertex="1" connectable="0" parent="TOe0ZiUlGQk0aBQ8viVR-3">
          <mxGeometry x="0.01" relative="1" as="geometry">
            <mxPoint as="offset" />
          </mxGeometry>
        </mxCell>
        <mxCell id="TOe0ZiUlGQk0aBQ8viVR-1" value="全程参会人员座次" style="rounded=0;whiteSpace=wrap;html=1;" vertex="1" parent="1">
          <mxGeometry x="-200" y="600" width="120" height="60" as="geometry" />
        </mxCell>
        <mxCell id="TOe0ZiUlGQk0aBQ8viVR-2" value="&lt;h1&gt;实际触发中间数据保存逻辑&lt;br&gt;&lt;/h1&gt;" style="text;html=1;align=center;verticalAlign=middle;resizable=0;points=[];autosize=1;strokeColor=none;fillColor=none;" vertex="1" parent="1">
          <mxGeometry x="-90" y="420" width="310" height="70" as="geometry" />
        </mxCell>
        <mxCell id="TOe0ZiUlGQk0aBQ8viVR-9" style="edgeStyle=orthogonalEdgeStyle;rounded=0;orthogonalLoop=1;jettySize=auto;html=1;entryX=0;entryY=0.5;entryDx=0;entryDy=0;" edge="1" parent="1" source="TOe0ZiUlGQk0aBQ8viVR-7" target="TOe0ZiUlGQk0aBQ8viVR-8">
          <mxGeometry relative="1" as="geometry" />
        </mxCell>
        <mxCell id="TOe0ZiUlGQk0aBQ8viVR-12" value="若没有" style="edgeLabel;html=1;align=center;verticalAlign=middle;resizable=0;points=[];" vertex="1" connectable="0" parent="TOe0ZiUlGQk0aBQ8viVR-9">
          <mxGeometry x="-0.2377" y="1" relative="1" as="geometry">
            <mxPoint x="1" as="offset" />
          </mxGeometry>
        </mxCell>
        <mxCell id="TOe0ZiUlGQk0aBQ8viVR-14" style="edgeStyle=orthogonalEdgeStyle;rounded=0;orthogonalLoop=1;jettySize=auto;html=1;entryX=0.5;entryY=0;entryDx=0;entryDy=0;" edge="1" parent="1" source="TOe0ZiUlGQk0aBQ8viVR-7" target="TOe0ZiUlGQk0aBQ8viVR-13">
          <mxGeometry relative="1" as="geometry" />
        </mxCell>
        <mxCell id="TOe0ZiUlGQk0aBQ8viVR-16" value="若有" style="edgeLabel;html=1;align=center;verticalAlign=middle;resizable=0;points=[];" vertex="1" connectable="0" parent="TOe0ZiUlGQk0aBQ8viVR-14">
          <mxGeometry x="-0.4133" y="-1" relative="1" as="geometry">
            <mxPoint as="offset" />
          </mxGeometry>
        </mxCell>
        <mxCell id="TOe0ZiUlGQk0aBQ8viVR-7" value="中间数据" style="rhombus;whiteSpace=wrap;html=1;" vertex="1" parent="1">
          <mxGeometry x="74" y="590" width="80" height="80" as="geometry" />
        </mxCell>
        <mxCell id="TOe0ZiUlGQk0aBQ8viVR-8" value="有几个座位则保存多少个座位，以座位编号区分" style="rounded=0;whiteSpace=wrap;html=1;" vertex="1" parent="1">
          <mxGeometry x="260" y="600" width="120" height="60" as="geometry" />
        </mxCell>
        <mxCell id="TOe0ZiUlGQk0aBQ8viVR-10" value="&lt;h1&gt;中间数据结构&lt;/h1&gt;&lt;pre style=&quot;background-color:#2b2b2b;color:#a9b7c6;font-family:&#39;JetBrains Mono&#39;,monospace;font-size:9.8pt;&quot;&gt;{&lt;br&gt;    /**&lt;br&gt;&lt;span style=&quot;color:#629755;font-style:italic;&quot;&gt;     *&lt;br&gt;&lt;/span&gt;&lt;span style=&quot;color:#629755;font-style:italic;&quot;&gt;     */&lt;br&gt;&lt;/span&gt;&lt;span style=&quot;color:#629755;font-style:italic;&quot;&gt;    &lt;/span&gt;&lt;span style=&quot;color:#bbb529;&quot;&gt;@TableId&lt;br&gt;&lt;/span&gt;&lt;span style=&quot;color:#bbb529;&quot;&gt;    &lt;/span&gt;&lt;span style=&quot;color:#cc7832;&quot;&gt;private &lt;/span&gt;String &lt;span style=&quot;color:#9876aa;&quot;&gt;id&lt;/span&gt;&lt;span style=&quot;color:#cc7832;&quot;&gt;;&lt;br&gt;&lt;/span&gt;&lt;span style=&quot;color:#cc7832;&quot;&gt;&lt;br&gt;&lt;/span&gt;&lt;span style=&quot;color:#cc7832;&quot;&gt;    &lt;/span&gt;&lt;span style=&quot;color:#629755;font-style:italic;&quot;&gt;/**&lt;br&gt;&lt;/span&gt;&lt;span style=&quot;color:#629755;font-style:italic;&quot;&gt;     * &lt;/span&gt;&lt;span style=&quot;color:#629755;font-style:italic;font-family:&#39;宋体&#39;,monospace;&quot;&gt;会议&lt;/span&gt;&lt;span style=&quot;color:#629755;font-style:italic;&quot;&gt;id&lt;br&gt;&lt;/span&gt;&lt;span style=&quot;color:#629755;font-style:italic;&quot;&gt;     */&lt;br&gt;&lt;/span&gt;&lt;span style=&quot;color:#629755;font-style:italic;&quot;&gt;    &lt;/span&gt;&lt;span style=&quot;color:#cc7832;&quot;&gt;private &lt;/span&gt;String &lt;span style=&quot;color:#9876aa;&quot;&gt;meetingId&lt;/span&gt;&lt;span style=&quot;color:#cc7832;&quot;&gt;;&lt;br&gt;&lt;/span&gt;&lt;span style=&quot;color:#cc7832;&quot;&gt;&lt;br&gt;&lt;/span&gt;&lt;span style=&quot;color:#cc7832;&quot;&gt;    &lt;/span&gt;&lt;span style=&quot;color:#629755;font-style:italic;&quot;&gt;/**&lt;br&gt;&lt;/span&gt;&lt;span style=&quot;color:#629755;font-style:italic;&quot;&gt;     * &lt;/span&gt;&lt;span style=&quot;color:#629755;font-style:italic;font-family:&#39;宋体&#39;,monospace;&quot;&gt;状态&lt;/span&gt;&lt;span style=&quot;color:#629755;font-style:italic;&quot;&gt;-&lt;/span&gt;&lt;span style=&quot;color:#629755;font-style:italic;font-family:&#39;宋体&#39;,monospace;&quot;&gt;预留&lt;br&gt;&lt;/span&gt;&lt;span style=&quot;color:#629755;font-style:italic;font-family:&#39;宋体&#39;,monospace;&quot;&gt;     &lt;/span&gt;&lt;span style=&quot;color:#629755;font-style:italic;&quot;&gt;*/&lt;br&gt;&lt;/span&gt;&lt;span style=&quot;color:#629755;font-style:italic;&quot;&gt;    &lt;/span&gt;&lt;span style=&quot;color:#cc7832;&quot;&gt;private &lt;/span&gt;String &lt;span style=&quot;color:#9876aa;&quot;&gt;status &lt;/span&gt;= &lt;span style=&quot;color:#6a8759;&quot;&gt;&quot;0&quot;&lt;/span&gt;&lt;span style=&quot;color:#cc7832;&quot;&gt;;&lt;br&gt;&lt;/span&gt;&lt;span style=&quot;color:#cc7832;&quot;&gt;&lt;br&gt;&lt;/span&gt;&lt;span style=&quot;color:#cc7832;&quot;&gt;    &lt;/span&gt;&lt;span style=&quot;color:#629755;font-style:italic;&quot;&gt;/**&lt;br&gt;&lt;/span&gt;&lt;span style=&quot;color:#629755;font-style:italic;&quot;&gt;     * &lt;/span&gt;&lt;span style=&quot;color:#629755;font-style:italic;font-family:&#39;宋体&#39;,monospace;&quot;&gt;更新时间&lt;br&gt;&lt;/span&gt;&lt;span style=&quot;color:#629755;font-style:italic;font-family:&#39;宋体&#39;,monospace;&quot;&gt;     &lt;/span&gt;&lt;span style=&quot;color:#629755;font-style:italic;&quot;&gt;*/&lt;br&gt;&lt;/span&gt;&lt;span style=&quot;color:#629755;font-style:italic;&quot;&gt;    &lt;/span&gt;&lt;span style=&quot;color:#cc7832;&quot;&gt;private &lt;/span&gt;Date &lt;span style=&quot;color:#9876aa;&quot;&gt;updateTime&lt;/span&gt;&lt;span style=&quot;color:#cc7832;&quot;&gt;;&lt;br&gt;&lt;/span&gt;&lt;span style=&quot;color:#cc7832;&quot;&gt;&lt;br&gt;&lt;/span&gt;&lt;span style=&quot;color:#cc7832;&quot;&gt;    &lt;/span&gt;&lt;span style=&quot;color:#629755;font-style:italic;&quot;&gt;/**&lt;br&gt;&lt;/span&gt;&lt;span style=&quot;color:#629755;font-style:italic;&quot;&gt;     * &lt;/span&gt;&lt;span style=&quot;color:#629755;font-style:italic;font-family:&#39;宋体&#39;,monospace;&quot;&gt;座位&lt;/span&gt;&lt;span style=&quot;color:#629755;font-style:italic;&quot;&gt;json&lt;/span&gt;&lt;span style=&quot;color:#629755;font-style:italic;font-family:&#39;宋体&#39;,monospace;&quot;&gt;数据&lt;br&gt;&lt;/span&gt;&lt;span style=&quot;color:#629755;font-style:italic;font-family:&#39;宋体&#39;,monospace;&quot;&gt;     &lt;/span&gt;&lt;span style=&quot;color:#629755;font-style:italic;&quot;&gt;*/&lt;br&gt;&lt;/span&gt;&lt;span style=&quot;color:#629755;font-style:italic;&quot;&gt;    &lt;/span&gt;&lt;span style=&quot;color:#cc7832;&quot;&gt;private &lt;/span&gt;String &lt;span style=&quot;color:#9876aa;&quot;&gt;seatComponents&lt;/span&gt;&lt;span style=&quot;color:#cc7832;&quot;&gt;;&lt;br&gt;&lt;/span&gt;&lt;span style=&quot;color:#cc7832;&quot;&gt;&lt;br&gt;&lt;/span&gt;&lt;span style=&quot;color:#cc7832;&quot;&gt;    &lt;/span&gt;&lt;span style=&quot;color:#bbb529;&quot;&gt;@TableField&lt;/span&gt;(exist = &lt;span style=&quot;color:#cc7832;&quot;&gt;false&lt;/span&gt;)&lt;br&gt;    &lt;span style=&quot;color:#cc7832;&quot;&gt;private &lt;/span&gt;List&amp;lt;SeatMiddleEntity&amp;gt; &lt;span style=&quot;color:#9876aa;&quot;&gt;componentsData&lt;/span&gt;&lt;span style=&quot;color:#cc7832;&quot;&gt;;&lt;br&gt;&lt;/span&gt;&lt;span style=&quot;color:#cc7832;&quot;&gt;&lt;br&gt;&lt;/span&gt;}&lt;/pre&gt;" style="text;html=1;strokeColor=none;fillColor=none;spacing=5;spacingTop=-20;whiteSpace=wrap;overflow=hidden;rounded=0;" vertex="1" parent="1">
          <mxGeometry x="510" y="400" width="330" height="550" as="geometry" />
        </mxCell>
        <mxCell id="TOe0ZiUlGQk0aBQ8viVR-11" value="&lt;h1&gt;SeatMiddleEntity&lt;/h1&gt;&lt;pre style=&quot;background-color:#2b2b2b;color:#a9b7c6;font-family:&#39;JetBrains Mono&#39;,monospace;font-size:9.8pt;&quot;&gt;&lt;pre style=&quot;font-family: &amp;quot;JetBrains Mono&amp;quot;, monospace; font-size: 9.8pt;&quot;&gt;{&lt;br&gt;    /**&lt;br&gt;&lt;span style=&quot;color:#629755;font-style:italic;&quot;&gt;     * &lt;/span&gt;&lt;span style=&quot;color:#629755;font-style:italic;font-family:&#39;宋体&#39;,monospace;&quot;&gt;多个议题&lt;/span&gt;&lt;span style=&quot;color:#629755;font-style:italic;&quot;&gt;id&lt;/span&gt;&lt;span style=&quot;color:#629755;font-style:italic;font-family:&#39;宋体&#39;,monospace;&quot;&gt;，当为空时则为全称参会&lt;br&gt;&lt;/span&gt;&lt;span style=&quot;color:#629755;font-style:italic;font-family:&#39;宋体&#39;,monospace;&quot;&gt;     &lt;/span&gt;&lt;span style=&quot;color:#629755;font-style:italic;&quot;&gt;* &lt;/span&gt;&lt;span style=&quot;color:#629755;font-style:italic;font-family:&#39;宋体&#39;,monospace;&quot;&gt;判断这个编号的座位是否为议题参会人的，&lt;/span&gt;&lt;/pre&gt;&lt;pre style=&quot;font-family: &amp;quot;JetBrains Mono&amp;quot;, monospace; font-size: 9.8pt;&quot;&gt;&lt;span style=&quot;color:#629755;font-style:italic;font-family:&#39;宋体&#39;,monospace;&quot;&gt;     * 若是议题参会人的则可能出现多个议题都排了人&lt;br&gt;&lt;/span&gt;&lt;span style=&quot;color:#629755;font-style:italic;font-family:&#39;宋体&#39;,monospace;&quot;&gt;     &lt;/span&gt;&lt;span style=&quot;color:#629755;font-style:italic;&quot;&gt;*/&lt;br&gt;&lt;/span&gt;&lt;span style=&quot;color:#629755;font-style:italic;&quot;&gt;    &lt;/span&gt;&lt;span style=&quot;color:#cc7832;&quot;&gt;private &lt;/span&gt;List&amp;lt;String&amp;gt; &lt;span style=&quot;color:#9876aa;&quot;&gt;subjectIds&lt;/span&gt;&lt;span style=&quot;color:#cc7832;&quot;&gt;;&lt;br&gt;&lt;/span&gt;&lt;span style=&quot;color:#cc7832;&quot;&gt;    &lt;/span&gt;&lt;span style=&quot;color:#629755;font-style:italic;&quot;&gt;/**&lt;br&gt;&lt;/span&gt;&lt;span style=&quot;color:#629755;font-style:italic;&quot;&gt;     * &lt;/span&gt;&lt;span style=&quot;color:#629755;font-style:italic;font-family:&#39;宋体&#39;,monospace;&quot;&gt;座位编号&lt;br&gt;&lt;/span&gt;&lt;span style=&quot;color:#629755;font-style:italic;font-family:&#39;宋体&#39;,monospace;&quot;&gt;     &lt;/span&gt;&lt;span style=&quot;color:#629755;font-style:italic;&quot;&gt;*/&lt;br&gt;&lt;/span&gt;&lt;span style=&quot;color:#629755;font-style:italic;&quot;&gt;    &lt;/span&gt;&lt;span style=&quot;color:#cc7832;&quot;&gt;private &lt;/span&gt;Integer &lt;span style=&quot;color:#9876aa;&quot;&gt;seatNumber&lt;/span&gt;&lt;span style=&quot;color:#cc7832;&quot;&gt;;&lt;br&gt;&lt;/span&gt;&lt;span style=&quot;color:#cc7832;&quot;&gt;    &lt;/span&gt;&lt;span style=&quot;color:#629755;font-style:italic;&quot;&gt;/**&lt;br&gt;&lt;/span&gt;&lt;span style=&quot;color:#629755;font-style:italic;&quot;&gt;     * &lt;/span&gt;&lt;span style=&quot;color:#629755;font-style:italic;font-family:&#39;宋体&#39;,monospace;&quot;&gt;设备&lt;/span&gt;&lt;span style=&quot;color:#629755;font-style:italic;&quot;&gt;id&lt;br&gt;&lt;/span&gt;&lt;span style=&quot;color:#629755;font-style:italic;&quot;&gt;     */&lt;br&gt;&lt;/span&gt;&lt;span style=&quot;color:#629755;font-style:italic;&quot;&gt;    &lt;/span&gt;&lt;span style=&quot;color:#cc7832;&quot;&gt;private &lt;/span&gt;String &lt;span style=&quot;color:#9876aa;&quot;&gt;appId &lt;/span&gt;= &lt;span style=&quot;color:#6a8759;&quot;&gt;&quot;&quot;&lt;/span&gt;&lt;span style=&quot;color:#cc7832;&quot;&gt;;&lt;br&gt;&lt;/span&gt;&lt;span style=&quot;color:#cc7832;&quot;&gt;    &lt;/span&gt;&lt;span style=&quot;color:#629755;font-style:italic;&quot;&gt;/**&lt;br&gt;&lt;/span&gt;&lt;span style=&quot;color:#629755;font-style:italic;&quot;&gt;     * &lt;/span&gt;&lt;span style=&quot;color:#629755;font-style:italic;font-family:&#39;宋体&#39;,monospace;&quot;&gt;设备名称&lt;br&gt;&lt;/span&gt;&lt;span style=&quot;color:#629755;font-style:italic;font-family:&#39;宋体&#39;,monospace;&quot;&gt;     &lt;/span&gt;&lt;span style=&quot;color:#629755;font-style:italic;&quot;&gt;*/&lt;br&gt;&lt;/span&gt;&lt;span style=&quot;color:#629755;font-style:italic;&quot;&gt;    &lt;/span&gt;&lt;span style=&quot;color:#cc7832;&quot;&gt;private &lt;/span&gt;String &lt;span style=&quot;color:#9876aa;&quot;&gt;appName &lt;/span&gt;= &lt;span style=&quot;color:#6a8759;&quot;&gt;&quot;&quot;&lt;/span&gt;&lt;span style=&quot;color:#cc7832;&quot;&gt;;&lt;br&gt;&lt;/span&gt;&lt;span style=&quot;color:#cc7832;&quot;&gt;    &lt;/span&gt;&lt;span style=&quot;color:#629755;font-style:italic;&quot;&gt;/**&lt;br&gt;&lt;/span&gt;&lt;span style=&quot;color:#629755;font-style:italic;&quot;&gt;     * &lt;/span&gt;&lt;span style=&quot;color:#629755;font-style:italic;font-family:&#39;宋体&#39;,monospace;&quot;&gt;桌牌&lt;/span&gt;&lt;span style=&quot;color:#629755;font-style:italic;&quot;&gt;id&lt;br&gt;&lt;/span&gt;&lt;span style=&quot;color:#629755;font-style:italic;&quot;&gt;     */&lt;br&gt;&lt;/span&gt;&lt;span style=&quot;color:#629755;font-style:italic;&quot;&gt;    &lt;/span&gt;&lt;span style=&quot;color:#cc7832;&quot;&gt;private &lt;/span&gt;String &lt;span style=&quot;color:#9876aa;&quot;&gt;cardId &lt;/span&gt;= &lt;span style=&quot;color:#6a8759;&quot;&gt;&quot;&quot;&lt;/span&gt;&lt;span style=&quot;color:#cc7832;&quot;&gt;;&lt;br&gt;&lt;/span&gt;&lt;span style=&quot;color:#cc7832;&quot;&gt;    &lt;/span&gt;&lt;span style=&quot;color:#629755;font-style:italic;&quot;&gt;/**&lt;br&gt;&lt;/span&gt;&lt;span style=&quot;color:#629755;font-style:italic;&quot;&gt;     * &lt;/span&gt;&lt;span style=&quot;color:#629755;font-style:italic;font-family:&#39;宋体&#39;,monospace;&quot;&gt;桌牌名称&lt;br&gt;&lt;/span&gt;&lt;span style=&quot;color:#629755;font-style:italic;font-family:&#39;宋体&#39;,monospace;&quot;&gt;     &lt;/span&gt;&lt;span style=&quot;color:#629755;font-style:italic;&quot;&gt;*/&lt;br&gt;&lt;/span&gt;&lt;span style=&quot;color:#629755;font-style:italic;&quot;&gt;    &lt;/span&gt;&lt;span style=&quot;color:#cc7832;&quot;&gt;private &lt;/span&gt;String &lt;span style=&quot;color:#9876aa;&quot;&gt;cardName &lt;/span&gt;= &lt;span style=&quot;color:#6a8759;&quot;&gt;&quot;&quot;&lt;/span&gt;&lt;span style=&quot;color:#cc7832;&quot;&gt;;&lt;br&gt;&lt;/span&gt;&lt;span style=&quot;color:#cc7832;&quot;&gt;&lt;br&gt;&lt;/span&gt;&lt;span style=&quot;color:#cc7832;&quot;&gt;    &lt;/span&gt;&lt;span style=&quot;color:#629755;font-style:italic;&quot;&gt;/**&lt;br&gt;&lt;/span&gt;&lt;span style=&quot;color:#629755;font-style:italic;&quot;&gt;     * &lt;/span&gt;&lt;span style=&quot;color:#629755;font-style:italic;font-family:&#39;宋体&#39;,monospace;&quot;&gt;桌牌类型&lt;br&gt;&lt;/span&gt;&lt;span style=&quot;color:#629755;font-style:italic;font-family:&#39;宋体&#39;,monospace;&quot;&gt;     &lt;/span&gt;&lt;span style=&quot;color:#629755;font-style:italic;&quot;&gt;*/&lt;br&gt;&lt;/span&gt;&lt;span style=&quot;color:#629755;font-style:italic;&quot;&gt;    &lt;/span&gt;&lt;span style=&quot;color:#cc7832;&quot;&gt;private &lt;/span&gt;Integer &lt;span style=&quot;color:#9876aa;&quot;&gt;cardType &lt;/span&gt;= &lt;span style=&quot;color:#6897bb;&quot;&gt;3&lt;/span&gt;&lt;span style=&quot;color:#cc7832;&quot;&gt;;&lt;br&gt;&lt;/span&gt;&lt;span style=&quot;color:#cc7832;&quot;&gt;    &lt;/span&gt;&lt;span style=&quot;color:#629755;font-style:italic;&quot;&gt;/**&lt;br&gt;&lt;/span&gt;&lt;span style=&quot;color:#629755;font-style:italic;&quot;&gt;     * &lt;/span&gt;&lt;span style=&quot;color:#629755;font-style:italic;font-family:&#39;宋体&#39;,monospace;&quot;&gt;人员&lt;br&gt;&lt;/span&gt;&lt;span style=&quot;color:#629755;font-style:italic;font-family:&#39;宋体&#39;,monospace;&quot;&gt;     &lt;/span&gt;&lt;span style=&quot;color:#629755;font-style:italic;&quot;&gt;*/&lt;br&gt;&lt;/span&gt;&lt;span style=&quot;color:#629755;font-style:italic;&quot;&gt;    &lt;/span&gt;&lt;span style=&quot;color:#cc7832;&quot;&gt;private &lt;/span&gt;List&amp;lt;String&amp;gt; &lt;span style=&quot;color:#9876aa;&quot;&gt;memberNames&lt;/span&gt;&lt;span style=&quot;color:#cc7832;&quot;&gt;;&lt;br&gt;&lt;/span&gt;}&lt;/pre&gt;&lt;/pre&gt;" style="text;html=1;strokeColor=none;fillColor=none;spacing=5;spacingTop=-20;whiteSpace=wrap;overflow=hidden;rounded=0;" vertex="1" parent="1">
          <mxGeometry x="850" y="390" width="340" height="640" as="geometry" />
        </mxCell>
        <mxCell id="TOe0ZiUlGQk0aBQ8viVR-13" value="按座位编号保存议题id、人员姓名" style="rounded=0;whiteSpace=wrap;html=1;" vertex="1" parent="1">
          <mxGeometry x="54" y="760" width="120" height="60" as="geometry" />
        </mxCell>
      </root>
    </mxGraphModel>
  </diagram>
</mxfile>
